# Blender v2.92.0 OBJ File: 'pelo.blend'
# www.blender.org
mtllib corpo.mtl
o Icosphere
v 0.000000 -1.000000 0.000000
v 0.723607 -0.447220 0.742658
v -0.276388 -0.447220 1.201656
v -0.894426 -0.447216 0.000000
v -0.276388 -0.447220 -1.201656
v 0.723607 -0.447220 -0.742658
v 0.276388 0.447220 1.201656
v -0.723607 0.447220 0.742658
v -0.723607 0.447220 -0.742658
v 0.276388 0.447220 -1.201656
v 0.894426 0.447216 0.000000
v 0.000000 1.000000 0.000000
v -0.162456 -0.850654 0.706311
v 0.425323 -0.850654 0.436520
v 0.262869 -0.525738 1.142838
v 0.850648 -0.525736 0.000000
v 0.425323 -0.850654 -0.436520
v -0.525730 -0.850652 0.000000
v -0.688189 -0.525736 0.706313
v -0.162456 -0.850654 -0.706311
v -0.688189 -0.525736 -0.706313
v 0.262869 -0.525738 -1.142838
v 0.951058 0.000000 0.436522
v 0.951058 0.000000 -0.436522
v 0.000000 0.000000 1.287382
v 0.587786 0.000000 1.142845
v -0.951058 0.000000 0.436522
v -0.587786 0.000000 1.142845
v -0.587786 0.000000 -1.142845
v -0.951058 0.000000 -0.436522
v 0.587786 0.000000 -1.142845
v 0.000000 0.000000 -1.295055
v 0.688189 0.525736 0.706313
v -0.262869 0.525738 1.142838
v -0.850648 0.525736 0.000000
v -0.262869 0.525738 -1.142838
v 0.688189 0.525736 -0.706313
v 0.162456 0.850654 0.706311
v 0.525730 0.850652 0.000000
v -0.425323 0.850654 0.436520
v -0.425323 0.850654 -0.436520
v 0.162456 0.850654 -0.706311
v 0.000000 -1.000000 0.000000
v 0.723607 -0.447220 0.742658
v 0.723607 -0.447220 -0.742658
v 0.276388 0.447220 1.201656
v 0.894426 0.447216 0.000000
v 0.000000 1.000000 0.000000
v 0.425323 -0.850654 0.436520
v 0.262869 -0.525738 1.142838
v 0.850648 -0.525736 0.000000
v 0.425323 -0.850654 -0.436520
v -0.525730 -0.850652 0.000000
v -0.162456 -0.850654 -0.706311
v 0.262869 -0.525738 -1.142838
v 0.951058 0.000000 0.436522
v 0.951058 0.000000 -0.436522
v 0.587786 0.000000 1.142845
v 0.587786 0.000000 -1.142845
v 0.688189 0.525736 0.706313
v -0.262869 0.525738 1.142838
v 0.688189 0.525736 -0.706313
v 0.162456 0.850654 0.706311
v 0.525730 0.850652 0.000000
v -0.425323 0.850654 0.436520
v 0.162456 0.850654 -0.706311
vt 0.818181 0.000000
vt 0.772726 0.078731
vt 0.863635 0.078731
vt 0.727272 0.157461
vt 0.681818 0.078731
vt 0.636363 0.157461
vt 0.090909 0.000000
vt 0.045454 0.078731
vt 0.136363 0.078731
vt 0.272727 0.000000
vt 0.227273 0.078731
vt 0.318182 0.078731
vt 0.454545 0.000000
vt 0.409090 0.078731
vt 0.500000 0.078731
vt 0.681818 0.236191
vt 0.909090 0.157461
vt 0.818181 0.157461
vt 0.863635 0.236191
vt 0.181818 0.157461
vt 0.090909 0.157461
vt 0.136363 0.236191
vt 0.363636 0.157461
vt 0.272727 0.157461
vt 0.318182 0.236191
vt 0.545454 0.157461
vt 0.454545 0.157461
vt 0.500000 0.236191
vt 0.772726 0.236191
vt 0.954545 0.236191
vt 0.227273 0.236191
vt 0.409090 0.236191
vt 0.590909 0.236191
vt 0.818181 0.314921
vt 0.727272 0.314921
vt 0.772726 0.393651
vt 1.000000 0.314921
vt 0.909091 0.314921
vt 0.954545 0.393651
vt 0.272727 0.314921
vt 0.181818 0.314921
vt 0.227273 0.393651
vt 0.454545 0.314921
vt 0.363636 0.314921
vt 0.409090 0.393651
vt 0.636363 0.314921
vt 0.545454 0.314921
vt 0.590909 0.393651
vt 0.500000 0.393651
vt 0.545454 0.472382
vt 0.318182 0.393651
vt 0.363636 0.472382
vt 0.136363 0.393651
vt 0.181818 0.472382
vt 0.090909 0.314921
vt 0.863635 0.393651
vt 0.909090 0.472382
vt 0.681818 0.393651
vt 0.727272 0.472382
vt 0.045454 0.236191
vt 0.000000 0.157461
vt 0.590909 0.078731
vt 0.636363 0.000000
vt 0.727272 0.157461
vt 0.681818 0.078731
vt 0.636363 0.157461
vt 0.681818 0.236191
vt 0.545454 0.157461
vt 0.454545 0.157461
vt 0.500000 0.236191
vt 0.772726 0.236191
vt 0.590909 0.236191
vt 0.818181 0.314921
vt 0.727272 0.314921
vt 0.772726 0.393651
vt 0.636363 0.314921
vt 0.545454 0.314921
vt 0.590909 0.393651
vt 0.500000 0.393651
vt 0.545454 0.472382
vt 0.681818 0.393651
vt 0.727272 0.472382
vt 0.818181 0.157461
vt 0.500000 0.078731
vt 0.409090 0.078731
vt 0.590909 0.078731
vt 0.636363 0.000000
vt 0.772726 0.078731
vn 0.1050 -0.9678 0.2288
vn 0.7131 -0.6739 0.1932
vn -0.2706 -0.9526 0.1392
vn -0.2706 -0.9526 -0.1392
vn 0.1050 -0.9678 -0.2288
vn 0.9217 -0.3365 0.1932
vn 0.0723 -0.2307 0.9703
vn -0.9126 -0.3389 0.2288
vn -0.6770 -0.3893 -0.6246
vn 0.6398 -0.3954 -0.6590
vn 0.8808 -0.1379 0.4530
vn -0.2386 -0.0385 0.9704
vn -0.9921 -0.1256 0.0000
vn -0.2504 -0.0472 -0.9670
vn 0.8808 -0.1379 -0.4530
vn 0.4564 0.7384 0.4964
vn -0.5172 0.7261 0.4530
vn -0.7131 0.6739 -0.1932
vn 0.0454 0.7797 -0.6246
vn 0.7310 0.6680 -0.1392
vn 0.2706 0.9526 -0.1392
vn 0.5075 0.8212 -0.2610
vn 0.4564 0.7384 -0.4964
vn -0.1050 0.9678 -0.2288
vn -0.2055 0.8703 -0.4476
vn -0.5172 0.7261 -0.4530
vn -0.3313 0.9435 0.0000
vn -0.6071 0.7947 0.0000
vn -0.7131 0.6739 0.1932
vn -0.1050 0.9678 0.2288
vn -0.2055 0.8703 0.4476
vn 0.0454 0.7797 0.6246
vn 0.2706 0.9526 0.1392
vn 0.5075 0.8212 0.2610
vn 0.7310 0.6680 0.1392
vn 0.9126 0.3389 -0.2288
vn 0.8703 0.2055 -0.4476
vn 0.6770 0.3893 -0.6246
vn -0.0698 0.2451 -0.9670
vn -0.2477 0.1531 -0.9567
vn -0.6398 0.3954 -0.6590
vn -0.9217 0.3365 -0.1932
vn -0.9822 0.1876 0.0000
vn -0.9217 0.3365 0.1932
vn -0.6398 0.3954 0.6590
vn -0.2362 0.1460 0.9607
vn -0.0723 0.2307 0.9703
vn 0.6770 0.3893 0.6246
vn 0.8703 0.2055 0.4476
vn 0.9126 0.3389 0.2288
vn 0.2504 0.0472 -0.9670
vn 0.2477 -0.1531 -0.9567
vn 0.0698 -0.2451 -0.9670
vn -0.8808 0.1379 -0.4530
vn -0.8703 -0.2055 -0.4476
vn -0.9126 -0.3389 -0.2288
vn -0.8808 0.1379 0.4530
vn -0.8703 -0.2055 0.4476
vn -0.6770 -0.3893 0.6246
vn 0.2386 0.0385 0.9704
vn 0.2362 -0.1460 0.9607
vn 0.6398 -0.3954 0.6590
vn 0.9921 0.1256 0.0000
vn 0.9822 -0.1876 0.0000
vn 0.9217 -0.3365 -0.1932
vn 0.5172 -0.7261 -0.4530
vn 0.2055 -0.8703 -0.4476
vn -0.0454 -0.7797 -0.6246
vn -0.4564 -0.7384 -0.4964
vn -0.5075 -0.8212 -0.2610
vn -0.7310 -0.6680 -0.1392
vn -0.7310 -0.6680 0.1392
vn -0.5075 -0.8212 0.2610
vn -0.4564 -0.7384 0.4964
vn 0.7131 -0.6739 -0.1932
vn 0.6071 -0.7947 0.0000
vn 0.3313 -0.9435 0.0000
vn -0.0454 -0.7797 0.6246
vn 0.2055 -0.8703 0.4476
vn 0.5172 -0.7261 0.4530
usemtl None
s off
f 1/1/1 14/2/1 13/3/1
f 2/4/2 14/5/2 16/6/2
f 1/7/3 13/8/3 18/9/3
f 1/10/4 18/11/4 20/12/4
f 1/13/5 20/14/5 17/15/5
f 2/4/6 16/6/6 23/16/6
f 3/17/7 15/18/7 25/19/7
f 4/20/8 19/21/8 27/22/8
f 5/23/9 21/24/9 29/25/9
f 6/26/10 22/27/10 31/28/10
f 2/4/11 23/16/11 26/29/11
f 3/17/12 25/19/12 28/30/12
f 4/20/13 27/22/13 30/31/13
f 5/23/14 29/25/14 32/32/14
f 6/26/15 31/28/15 24/33/15
f 7/34/16 33/35/16 38/36/16
f 8/37/17 34/38/17 40/39/17
f 9/40/18 35/41/18 41/42/18
f 10/43/19 36/44/19 42/45/19
f 11/46/20 37/47/20 39/48/20
f 39/48/21 42/49/21 12/50/21
f 39/48/22 37/47/22 42/49/22
f 37/47/23 10/43/23 42/49/23
f 42/45/24 41/51/24 12/52/24
f 42/45/25 36/44/25 41/51/25
f 36/44/26 9/40/26 41/51/26
f 41/42/27 40/53/27 12/54/27
f 41/42/28 35/41/28 40/53/28
f 35/41/29 8/55/29 40/53/29
f 40/39/30 38/56/30 12/57/30
f 40/39/31 34/38/31 38/56/31
f 34/38/32 7/34/32 38/56/32
f 38/36/33 39/58/33 12/59/33
f 38/36/34 33/35/34 39/58/34
f 33/35/35 11/46/35 39/58/35
f 24/33/36 37/47/36 11/46/36
f 24/33/37 31/28/37 37/47/37
f 31/28/38 10/43/38 37/47/38
f 32/32/39 36/44/39 10/43/39
f 32/32/40 29/25/40 36/44/40
f 29/25/41 9/40/41 36/44/41
f 30/31/42 35/41/42 9/40/42
f 30/31/43 27/22/43 35/41/43
f 27/22/44 8/55/44 35/41/44
f 28/30/45 34/38/45 8/37/45
f 28/30/46 25/19/46 34/38/46
f 25/19/47 7/34/47 34/38/47
f 26/29/48 33/35/48 7/34/48
f 26/29/49 23/16/49 33/35/49
f 23/16/50 11/46/50 33/35/50
f 31/28/51 32/32/51 10/43/51
f 31/28/52 22/27/52 32/32/52
f 22/27/53 5/23/53 32/32/53
f 29/25/54 30/31/54 9/40/54
f 29/25/55 21/24/55 30/31/55
f 21/24/56 4/20/56 30/31/56
f 27/22/57 28/60/57 8/55/57
f 27/22/58 19/21/58 28/60/58
f 19/21/59 3/61/59 28/60/59
f 25/19/60 26/29/60 7/34/60
f 25/19/61 15/18/61 26/29/61
f 15/18/62 2/4/62 26/29/62
f 23/16/63 24/33/63 11/46/63
f 23/16/64 16/6/64 24/33/64
f 16/6/65 6/26/65 24/33/65
f 17/15/66 22/27/66 6/26/66
f 17/15/67 20/14/67 22/27/67
f 20/14/68 5/23/68 22/27/68
f 20/12/69 21/24/69 5/23/69
f 20/12/70 18/11/70 21/24/70
f 18/11/71 4/20/71 21/24/71
f 18/9/72 19/21/72 4/20/72
f 18/9/73 13/8/73 19/21/73
f 13/8/74 3/61/74 19/21/74
f 16/6/75 17/62/75 6/26/75
f 16/6/76 14/5/76 17/62/76
f 14/5/77 1/63/77 17/62/77
f 13/3/78 15/18/78 3/17/78
f 13/3/79 14/2/79 15/18/79
f 14/2/80 2/4/80 15/18/80
f 44/64/2 49/65/2 51/66/2
f 44/64/6 51/66/6 56/67/6
f 45/68/10 55/69/10 59/70/10
f 44/64/11 56/67/11 58/71/11
f 45/68/15 59/70/15 57/72/15
f 46/73/16 60/74/16 63/75/16
f 47/76/20 62/77/20 64/78/20
f 64/78/21 66/79/21 48/80/21
f 64/78/22 62/77/22 66/79/22
f 63/75/33 64/81/33 48/82/33
f 63/75/34 60/74/34 64/81/34
f 60/74/35 47/76/35 64/81/35
f 57/72/36 62/77/36 47/76/36
f 57/72/37 59/70/37 62/77/37
f 58/71/48 60/74/48 46/73/48
f 58/71/49 56/67/49 60/74/49
f 56/67/50 47/76/50 60/74/50
f 50/83/62 44/64/62 58/71/62
f 56/67/63 57/72/63 47/76/63
f 56/67/64 51/66/64 57/72/64
f 51/66/65 45/68/65 57/72/65
f 52/84/66 55/69/66 45/68/66
f 52/84/67 54/85/67 55/69/67
f 51/66/75 52/86/75 45/68/75
f 51/66/76 49/65/76 52/86/76
f 49/65/77 43/87/77 52/86/77
f 49/88/80 44/64/80 50/83/80
l 46 61
l 65 63
l 54 53
o Icosphere.002_Icosphere.003
v 0.005882 0.264771 -1.423236
v 0.350580 0.429256 -1.159334
v -0.125779 0.429256 -0.996230
v -0.420188 0.429257 -1.423236
v -0.125779 0.429256 -1.850242
v 0.350580 0.429256 -1.687137
v 0.137542 0.695405 -0.996230
v -0.338817 0.695405 -1.159334
v -0.338817 0.695405 -1.687137
v 0.137542 0.695405 -1.850242
v 0.431952 0.695404 -1.423236
v 0.005882 0.859891 -1.423236
v -0.071506 0.309210 -1.172250
v 0.208489 0.309210 -1.268120
v 0.131102 0.405892 -1.017131
v 0.411097 0.405893 -1.423236
v 0.208489 0.309210 -1.578352
v -0.244556 0.309211 -1.423236
v -0.321945 0.405892 -1.172249
v -0.071506 0.309210 -1.674222
v -0.321945 0.405892 -1.674222
v 0.131102 0.405892 -1.829340
v 0.458929 0.562331 -1.268119
v 0.458929 0.562331 -1.578353
v 0.005882 0.562331 -0.965768
v 0.285880 0.562331 -1.017129
v -0.447165 0.562331 -1.268119
v -0.274117 0.562331 -1.017129
v -0.274117 0.562331 -1.829343
v -0.447165 0.562331 -1.578353
v 0.285880 0.562331 -1.829343
v 0.005882 0.562331 -1.883431
v 0.333709 0.718769 -1.172249
v -0.119339 0.718769 -1.017131
v -0.399334 0.718769 -1.423236
v -0.119339 0.718769 -1.829340
v 0.333709 0.718769 -1.674222
v 0.083269 0.815451 -1.172250
v 0.256319 0.815451 -1.423236
v -0.196726 0.815451 -1.268120
v -0.196726 0.815451 -1.578352
v 0.083269 0.815451 -1.674222
v 0.005882 0.264771 -1.423236
v 0.350580 0.429256 -1.159334
v 0.350580 0.429256 -1.687137
v 0.137542 0.695405 -0.996230
v 0.431952 0.695404 -1.423236
v 0.005882 0.859891 -1.423236
v 0.208489 0.309210 -1.268120
v 0.131102 0.405892 -1.017131
v 0.411097 0.405893 -1.423236
v 0.208489 0.309210 -1.578352
v -0.244556 0.309211 -1.423236
v -0.071506 0.309210 -1.674222
v 0.131102 0.405892 -1.829340
v 0.458929 0.562331 -1.268119
v 0.458929 0.562331 -1.578353
v 0.285880 0.562331 -1.017129
v 0.285880 0.562331 -1.829343
v 0.333709 0.718769 -1.172249
v -0.119339 0.718769 -1.017131
v 0.333709 0.718769 -1.674222
v 0.083269 0.815451 -1.172250
v 0.256319 0.815451 -1.423236
v -0.196726 0.815451 -1.268120
v 0.083269 0.815451 -1.674222
vt 0.818181 0.000000
vt 0.772726 0.078731
vt 0.863635 0.078731
vt 0.727272 0.157461
vt 0.681818 0.078731
vt 0.636363 0.157461
vt 0.090909 0.000000
vt 0.045454 0.078731
vt 0.136363 0.078731
vt 0.272727 0.000000
vt 0.227273 0.078731
vt 0.318182 0.078731
vt 0.454545 0.000000
vt 0.409090 0.078731
vt 0.500000 0.078731
vt 0.681818 0.236191
vt 0.909090 0.157461
vt 0.818181 0.157461
vt 0.863635 0.236191
vt 0.181818 0.157461
vt 0.090909 0.157461
vt 0.136363 0.236191
vt 0.363636 0.157461
vt 0.272727 0.157461
vt 0.318182 0.236191
vt 0.545454 0.157461
vt 0.454545 0.157461
vt 0.500000 0.236191
vt 0.772726 0.236191
vt 0.954545 0.236191
vt 0.227273 0.236191
vt 0.409090 0.236191
vt 0.590909 0.236191
vt 0.818181 0.314921
vt 0.727272 0.314921
vt 0.772726 0.393651
vt 1.000000 0.314921
vt 0.909091 0.314921
vt 0.954545 0.393651
vt 0.272727 0.314921
vt 0.181818 0.314921
vt 0.227273 0.393651
vt 0.454545 0.314921
vt 0.363636 0.314921
vt 0.409090 0.393651
vt 0.636363 0.314921
vt 0.545454 0.314921
vt 0.590909 0.393651
vt 0.500000 0.393651
vt 0.545454 0.472382
vt 0.318182 0.393651
vt 0.363636 0.472382
vt 0.136363 0.393651
vt 0.181818 0.472382
vt 0.090909 0.314921
vt 0.863635 0.393651
vt 0.909090 0.472382
vt 0.681818 0.393651
vt 0.727272 0.472382
vt 0.045454 0.236191
vt 0.000000 0.157461
vt 0.590909 0.078731
vt 0.636363 0.000000
vt 0.727272 0.157461
vt 0.681818 0.078731
vt 0.636363 0.157461
vt 0.681818 0.236191
vt 0.545454 0.157461
vt 0.454545 0.157461
vt 0.500000 0.236191
vt 0.772726 0.236191
vt 0.590909 0.236191
vt 0.818181 0.314921
vt 0.727272 0.314921
vt 0.772726 0.393651
vt 0.636363 0.314921
vt 0.545454 0.314921
vt 0.590909 0.393651
vt 0.500000 0.393651
vt 0.545454 0.472382
vt 0.681818 0.393651
vt 0.727272 0.472382
vt 0.818181 0.157461
vt 0.500000 0.078731
vt 0.409090 0.078731
vt 0.590909 0.078731
vt 0.636363 0.000000
vt 0.772726 0.078731
vn 0.0663 -0.9788 0.1938
vn 0.5407 -0.8180 0.1964
vn -0.1735 -0.9776 0.1196
vn -0.1735 -0.9776 -0.1196
vn 0.0663 -0.9788 -0.1938
vn 0.8390 -0.4904 0.2358
vn 0.0534 -0.2727 0.9606
vn -0.8258 -0.4909 0.2775
vn -0.5442 -0.5009 -0.6730
vn 0.5073 -0.5019 -0.7005
vn 0.8063 -0.2020 0.5559
vn -0.1802 -0.0466 0.9825
vn -0.9801 -0.1987 0.0000
vn -0.1894 -0.0571 -0.9802
vn 0.8063 -0.2020 -0.5559
vn 0.3188 0.8259 0.4650
vn -0.3669 0.8246 0.4307
vn -0.5407 0.8180 -0.1964
vn 0.0302 0.8301 -0.5568
vn 0.5585 0.8171 -0.1426
vn 0.1735 0.9776 -0.1196
vn 0.3495 0.9054 -0.2410
vn 0.3188 0.8259 -0.4650
vn -0.0663 0.9788 -0.1938
vn -0.1342 0.9101 -0.3920
vn -0.3669 0.8246 -0.4307
vn -0.2142 0.9768 0.0000
vn -0.4307 0.9025 0.0000
vn -0.5407 0.8180 0.1964
vn -0.0663 0.9788 0.1938
vn -0.1342 0.9101 0.3920
vn 0.0302 0.8301 0.5568
vn 0.1735 0.9776 0.1196
vn 0.3495 0.9054 0.2410
vn 0.5585 0.8171 0.1426
vn 0.8258 0.4909 -0.2775
vn 0.7861 0.2971 -0.5420
vn 0.5442 0.5009 -0.6730
vn -0.0515 0.2893 -0.9559
vn -0.1864 0.1844 -0.9650
vn -0.5073 0.5019 -0.7005
vn -0.8390 0.4904 -0.2358
vn -0.9563 0.2924 0.0000
vn -0.8390 0.4904 0.2358
vn -0.5073 0.5019 0.7005
vn -0.1776 0.1757 0.9683
vn -0.0534 0.2727 0.9606
vn 0.5442 0.5009 0.6730
vn 0.7861 0.2971 0.5420
vn 0.8258 0.4909 0.2775
vn 0.1894 0.0571 -0.9802
vn 0.1864 -0.1844 -0.9650
vn 0.0515 -0.2893 -0.9559
vn -0.8063 0.2020 -0.5559
vn -0.7861 -0.2971 -0.5420
vn -0.8258 -0.4909 -0.2775
vn -0.8063 0.2020 0.5559
vn -0.7861 -0.2971 0.5420
vn -0.5442 -0.5009 0.6730
vn 0.1802 0.0466 0.9825
vn 0.1776 -0.1757 0.9683
vn 0.5073 -0.5019 0.7005
vn 0.9801 0.1987 0.0000
vn 0.9563 -0.2924 0.0000
vn 0.8390 -0.4904 -0.2358
vn 0.3669 -0.8246 -0.4307
vn 0.1342 -0.9101 -0.3920
vn -0.0302 -0.8301 -0.5568
vn -0.3188 -0.8259 -0.4650
vn -0.3495 -0.9054 -0.2410
vn -0.5585 -0.8171 -0.1426
vn -0.5585 -0.8171 0.1426
vn -0.3495 -0.9054 0.2410
vn -0.3188 -0.8259 0.4650
vn 0.5407 -0.8180 -0.1964
vn 0.4307 -0.9025 0.0000
vn 0.2142 -0.9768 0.0000
vn -0.0302 -0.8301 0.5568
vn 0.1342 -0.9101 0.3920
vn 0.3669 -0.8246 0.4307
usemtl None
s off
f 67/89/81 80/90/81 79/91/81
f 68/92/82 80/93/82 82/94/82
f 67/95/83 79/96/83 84/97/83
f 67/98/84 84/99/84 86/100/84
f 67/101/85 86/102/85 83/103/85
f 68/92/86 82/94/86 89/104/86
f 69/105/87 81/106/87 91/107/87
f 70/108/88 85/109/88 93/110/88
f 71/111/89 87/112/89 95/113/89
f 72/114/90 88/115/90 97/116/90
f 68/92/91 89/104/91 92/117/91
f 69/105/92 91/107/92 94/118/92
f 70/108/93 93/110/93 96/119/93
f 71/111/94 95/113/94 98/120/94
f 72/114/95 97/116/95 90/121/95
f 73/122/96 99/123/96 104/124/96
f 74/125/97 100/126/97 106/127/97
f 75/128/98 101/129/98 107/130/98
f 76/131/99 102/132/99 108/133/99
f 77/134/100 103/135/100 105/136/100
f 105/136/101 108/137/101 78/138/101
f 105/136/102 103/135/102 108/137/102
f 103/135/103 76/131/103 108/137/103
f 108/133/104 107/139/104 78/140/104
f 108/133/105 102/132/105 107/139/105
f 102/132/106 75/128/106 107/139/106
f 107/130/107 106/141/107 78/142/107
f 107/130/108 101/129/108 106/141/108
f 101/129/109 74/143/109 106/141/109
f 106/127/110 104/144/110 78/145/110
f 106/127/111 100/126/111 104/144/111
f 100/126/112 73/122/112 104/144/112
f 104/124/113 105/146/113 78/147/113
f 104/124/114 99/123/114 105/146/114
f 99/123/115 77/134/115 105/146/115
f 90/121/116 103/135/116 77/134/116
f 90/121/117 97/116/117 103/135/117
f 97/116/118 76/131/118 103/135/118
f 98/120/119 102/132/119 76/131/119
f 98/120/120 95/113/120 102/132/120
f 95/113/121 75/128/121 102/132/121
f 96/119/122 101/129/122 75/128/122
f 96/119/123 93/110/123 101/129/123
f 93/110/124 74/143/124 101/129/124
f 94/118/125 100/126/125 74/125/125
f 94/118/126 91/107/126 100/126/126
f 91/107/127 73/122/127 100/126/127
f 92/117/128 99/123/128 73/122/128
f 92/117/129 89/104/129 99/123/129
f 89/104/130 77/134/130 99/123/130
f 97/116/131 98/120/131 76/131/131
f 97/116/132 88/115/132 98/120/132
f 88/115/133 71/111/133 98/120/133
f 95/113/134 96/119/134 75/128/134
f 95/113/135 87/112/135 96/119/135
f 87/112/136 70/108/136 96/119/136
f 93/110/137 94/148/137 74/143/137
f 93/110/138 85/109/138 94/148/138
f 85/109/139 69/149/139 94/148/139
f 91/107/140 92/117/140 73/122/140
f 91/107/141 81/106/141 92/117/141
f 81/106/142 68/92/142 92/117/142
f 89/104/143 90/121/143 77/134/143
f 89/104/144 82/94/144 90/121/144
f 82/94/145 72/114/145 90/121/145
f 83/103/146 88/115/146 72/114/146
f 83/103/147 86/102/147 88/115/147
f 86/102/148 71/111/148 88/115/148
f 86/100/149 87/112/149 71/111/149
f 86/100/150 84/99/150 87/112/150
f 84/99/151 70/108/151 87/112/151
f 84/97/152 85/109/152 70/108/152
f 84/97/153 79/96/153 85/109/153
f 79/96/154 69/149/154 85/109/154
f 82/94/155 83/150/155 72/114/155
f 82/94/156 80/93/156 83/150/156
f 80/93/157 67/151/157 83/150/157
f 79/91/158 81/106/158 69/105/158
f 79/91/159 80/90/159 81/106/159
f 80/90/160 68/92/160 81/106/160
f 110/152/82 115/153/82 117/154/82
f 110/152/86 117/154/86 122/155/86
f 111/156/90 121/157/90 125/158/90
f 110/152/91 122/155/91 124/159/91
f 111/156/95 125/158/95 123/160/95
f 112/161/96 126/162/96 129/163/96
f 113/164/100 128/165/100 130/166/100
f 130/166/101 132/167/101 114/168/101
f 130/166/102 128/165/102 132/167/102
f 129/163/113 130/169/113 114/170/113
f 129/163/114 126/162/114 130/169/114
f 126/162/115 113/164/115 130/169/115
f 123/160/116 128/165/116 113/164/116
f 123/160/117 125/158/117 128/165/117
f 124/159/128 126/162/128 112/161/128
f 124/159/129 122/155/129 126/162/129
f 122/155/130 113/164/130 126/162/130
f 116/171/142 110/152/142 124/159/142
f 122/155/143 123/160/143 113/164/143
f 122/155/144 117/154/144 123/160/144
f 117/154/145 111/156/145 123/160/145
f 118/172/146 121/157/146 111/156/146
f 118/172/147 120/173/147 121/157/147
f 117/154/155 118/174/155 111/156/155
f 117/154/156 115/153/156 118/174/156
f 115/153/157 109/175/157 118/174/157
f 115/176/160 110/152/160 116/171/160
l 112 127
l 131 129
l 120 119
