# Blender v2.80 (sub 75) OBJ File: ''
# www.blender.org
mtllib level1.mtl
o Cube.011_Cube.001
v -1.256462 -0.376383 -1.361623
v -2.756462 -0.376383 -2.861623
v -1.256462 -0.376383 -2.861623
v -1.256462 0.373617 -2.861623
v -2.756462 0.373617 -2.861623
v -2.756462 0.373617 -1.361623
v -1.256462 0.373617 -1.361623
v -2.756462 -0.376383 -1.361623
v -4.256462 -0.376383 -1.361623
v -5.756462 -0.376383 -2.861623
v -4.256462 -0.376383 -2.861623
v -5.756462 0.373617 -1.361623
v -4.256462 0.373617 -2.861623
v -5.756462 0.373617 -2.861623
v -4.256462 0.373617 -1.361623
v -5.756462 -0.376383 -1.361623
v -7.256462 0.373617 -2.861623
v -7.256462 -0.376383 -1.361623
v -7.256462 0.373617 -1.361623
v -5.756462 -0.376383 -1.361623
v -7.256462 -0.376383 -2.861623
v -5.756462 -0.376383 -2.861623
v -5.756462 0.373617 -2.861623
v -5.756462 0.373617 -1.361623
v -5.756462 0.373619 -4.361623
v -7.256462 -0.376381 -4.361623
v -7.256462 0.373619 -4.361623
v -7.256462 0.373617 -2.861623
v -7.256462 -0.376383 -2.861623
v -5.756462 -0.376383 -2.861623
v -5.756462 -0.376381 -4.361623
v -5.756462 0.373617 -2.861623
v -7.256462 0.373617 -1.361623
v -7.256462 -0.376384 0.138377
v -7.256462 0.373616 0.138377
v -5.756462 -0.376384 0.138377
v -7.256462 -0.376383 -1.361623
v -5.756462 -0.376383 -1.361623
v -5.756462 0.373617 -1.361623
v -5.756462 0.373616 0.138377
v -4.256462 0.373619 -4.361623
v -5.756462 -0.376381 -4.361623
v -5.756462 0.373619 -4.361623
v -5.756462 0.373617 -2.861623
v -4.256462 -0.376383 -2.861623
v -4.256462 -0.376381 -4.361623
v -4.256462 0.373617 -2.861623
v -5.756462 -0.376383 -2.861623
v -4.256462 -0.376384 0.138377
v -5.756462 -0.376383 -1.361623
v -4.256462 -0.376383 -1.361623
v -5.756462 0.373616 0.138377
v -4.256462 0.373617 -1.361623
v -5.756462 0.373617 -1.361623
v -4.256462 0.373616 0.138377
v -5.756462 -0.376384 0.138377
v -5.756462 0.373616 0.138377
v -5.756462 -0.376384 1.638377
v -5.756462 0.373616 1.638377
v -4.256462 -0.376384 1.638377
v -5.756462 -0.376384 0.138377
v -4.256462 -0.376384 0.138377
v -4.256462 0.373616 0.138377
v -4.256462 0.373616 1.638377
v -2.756462 0.373617 -2.861623
v -2.756462 -0.376381 -4.361623
v -2.756462 0.373619 -4.361623
v -4.256462 -0.376381 -4.361623
v -4.256462 0.373619 -4.361623
v -4.256462 0.373617 -2.861623
v -2.756462 -0.376383 -2.861623
v -4.256462 -0.376383 -2.861623
v -2.756462 -0.376383 -1.361623
v -4.256462 -0.376383 -2.861623
v -2.756462 -0.376383 -2.861623
v -4.256462 0.373617 -1.361623
v -2.756462 0.373617 -2.861623
v -4.256462 0.373617 -2.861623
v -2.756462 0.373617 -1.361623
v -4.256462 -0.376383 -1.361623
v -2.756462 -0.376384 0.138377
v -4.256462 -0.376383 -1.361623
v -2.756462 -0.376383 -1.361623
v -4.256462 0.373616 0.138377
v -2.756462 0.373617 -1.361623
v -4.256462 0.373617 -1.361623
v -2.756462 0.373616 0.138377
v -4.256462 -0.376384 0.138377
v -2.756462 -0.376384 1.638377
v -4.256462 -0.376384 0.138377
v -2.756462 -0.376384 0.138377
v -4.256462 0.373616 1.638377
v -2.756462 0.373616 0.138377
v -4.256462 0.373616 0.138377
v -2.756462 0.373616 1.638377
v -4.256462 -0.376384 1.638377
v 0.243538 -0.376383 -1.361623
v -1.256462 -0.376383 -2.861623
v 0.243538 -0.376383 -2.861623
v 0.243538 0.373617 -2.861623
v -1.256462 0.373617 -2.861623
v -1.256462 0.373617 -1.361623
v 0.243538 0.373617 -1.361623
v -1.256462 -0.376383 -1.361623
v 1.743538 -0.376383 -1.361623
v 0.243538 -0.376383 -2.861623
v 1.743538 -0.376383 -2.861623
v 1.743538 0.373617 -1.361623
v 1.743538 0.373617 -2.861623
v 0.243538 0.373617 -2.861623
v 0.243538 0.373617 -1.361623
v 0.243538 -0.376383 -1.361623
v -1.256462 -0.376384 0.138377
v -2.756462 -0.376383 -1.361623
v -1.256462 -0.376383 -1.361623
v -2.756462 0.373616 0.138377
v -1.256462 0.373617 -1.361623
v -2.756462 0.373617 -1.361623
v -1.256462 0.373616 0.138377
v -2.756462 -0.376384 0.138377
v 0.243538 -0.376384 0.138377
v -1.256462 -0.376383 -1.361623
v 0.243538 -0.376383 -1.361623
v -1.256462 0.373616 0.138377
v 0.243538 0.373617 -1.361623
v -1.256462 0.373617 -1.361623
v 0.243538 0.373616 0.138377
v -1.256462 -0.376384 0.138377
v 3.243538 -0.376384 0.138377
v 1.743538 -0.376383 -1.361623
v 3.243538 -0.376383 -1.361623
v 3.243538 0.373617 -1.361623
v 1.743538 0.373617 -1.361623
v 1.743538 0.373616 0.138377
v 3.243538 0.373616 0.138377
v 1.743538 -0.376384 0.138377
v -1.256462 -0.376384 1.638377
v -2.756462 -0.376384 0.138377
v -1.256462 -0.376384 0.138377
v -2.756462 0.373616 1.638377
v -1.256462 0.373616 0.138377
v -2.756462 0.373616 0.138377
v -1.256462 0.373616 1.638377
v -2.756462 -0.376384 1.638377
v 0.243538 -0.376384 1.638377
v -1.256462 -0.376384 0.138377
v 0.243538 -0.376384 0.138377
v -1.256462 0.373616 1.638377
v 0.243538 0.373616 0.138377
v -1.256462 0.373616 0.138377
v 0.243538 0.373616 1.638377
v -1.256462 -0.376384 1.638377
v 1.743538 -0.376384 1.638377
v 0.243538 -0.376384 0.138377
v 1.743538 -0.376384 0.138377
v 0.243538 0.373616 1.638377
v 1.743538 0.373616 0.138377
v 0.243538 0.373616 0.138377
v 1.743538 0.373616 1.638377
v 0.243538 -0.376384 1.638377
v 0.243538 0.373614 3.138377
v 1.743538 0.373616 1.638377
v 0.243538 0.373616 1.638377
v 0.243538 -0.376384 1.638377
v 0.243538 -0.376386 3.138377
v 1.743538 -0.376386 3.138377
v 1.743538 -0.376384 1.638377
v 1.743538 0.373614 3.138377
v 1.743538 -0.376384 0.138377
v 0.243538 -0.376383 -1.361623
v 1.743538 -0.376383 -1.361623
v 0.243538 0.373616 0.138377
v 1.743538 0.373617 -1.361623
v 0.243538 0.373617 -1.361623
v 1.743538 0.373616 0.138377
v 0.243538 -0.376384 0.138377
v 3.243538 -0.376384 1.638377
v 1.743538 -0.376384 0.138377
v 3.243538 -0.376384 0.138377
v 1.743538 0.373616 1.638377
v 3.243538 0.373616 0.138377
v 1.743538 0.373616 0.138377
v 3.243538 0.373616 1.638377
v 1.743538 -0.376384 1.638377
v 3.243538 0.373614 3.138377
v 3.243538 -0.376384 1.638377
v 3.243538 0.373616 1.638377
v 1.743538 0.373614 3.138377
v 1.743538 0.373616 1.638377
v 3.243538 -0.376386 3.138377
v 1.743538 -0.376384 1.638377
v 1.743538 -0.376386 3.138377
v 1.743538 0.373614 3.138377
v 1.743538 -0.376386 4.638377
v 1.743538 0.373614 4.638377
v 3.243538 -0.376386 4.638377
v 1.743538 -0.376386 3.138377
v 3.243538 -0.376386 3.138377
v 3.243538 0.373614 3.138377
v 3.243538 0.373614 4.638377
v 4.743538 -0.376386 4.638377
v 3.243538 -0.376386 3.138377
v 4.743538 -0.376386 3.138377
v 4.743538 0.373614 3.138377
v 3.243538 0.373614 3.138377
v 3.243538 0.373614 4.638377
v 4.743538 0.373614 4.638377
v 3.243538 -0.376386 4.638377
v 6.243538 -0.376386 4.638377
v 4.743538 -0.376386 3.138377
v 6.243538 -0.376386 3.138377
v 6.243538 0.373614 4.638377
v 6.243538 0.373614 3.138377
v 4.743538 0.373614 4.638377
v 4.743538 0.373614 3.138377
v 4.743538 -0.376386 4.638377
v 4.743538 0.373614 3.138377
v 6.243538 0.373616 1.638377
v 4.743538 0.373616 1.638377
v 4.743538 -0.376384 1.638377
v 4.743538 -0.376386 3.138377
v 6.243538 -0.376386 3.138377
v 6.243538 -0.376384 1.638377
v 6.243538 0.373614 3.138377
v 7.743538 0.373614 3.138377
v 7.743538 -0.376384 1.638377
v 7.743538 0.373616 1.638377
v 6.243538 0.373614 3.138377
v 6.243538 0.373616 1.638377
v 7.743538 -0.376386 3.138377
v 6.243538 -0.376386 3.138377
v 7.743538 -0.376384 1.638377
v 6.243538 -0.376384 0.138377
v 7.743538 -0.376384 0.138377
v 7.743538 0.373616 1.638377
v 7.743538 0.373616 0.138377
v 6.243538 0.373616 0.138377
v 6.243538 0.373616 1.638377
v 6.243538 -0.376384 1.638377
v 6.243538 -0.376384 1.638377
v 4.743538 -0.376384 0.138377
v 6.243538 -0.376384 0.138377
v 4.743538 0.373616 1.638377
v 6.243538 0.373616 0.138377
v 4.743538 0.373616 0.138377
v 6.243538 0.373616 1.638377
v 4.743538 -0.376384 1.638377
v 6.243538 -0.376384 0.138377
v 4.743538 -0.376383 -1.361623
v 6.243538 -0.376383 -1.361623
v 6.243538 0.373616 0.138377
v 6.243538 0.373617 -1.361623
v 4.743538 0.373617 -1.361623
v 4.743538 0.373616 0.138377
v 4.743538 -0.376384 0.138377
v 4.743538 -0.376384 0.138377
v 3.243538 -0.376383 -1.361623
v 4.743538 -0.376383 -1.361623
v 4.743538 0.373617 -1.361623
v 3.243538 0.373617 -1.361623
v 3.243538 0.373616 0.138377
v 4.743538 0.373616 0.138377
v 3.243538 -0.376384 0.138377
v 4.743538 -0.376384 1.638377
v 3.243538 -0.376384 0.138377
v 4.743538 -0.376384 0.138377
v 3.243538 0.373616 1.638377
v 4.743538 0.373616 0.138377
v 3.243538 0.373616 0.138377
v 4.743538 0.373616 1.638377
v 3.243538 -0.376384 1.638377
vt 0.375000 0.750000
vt 0.125000 0.500000
vt 0.375000 0.500000
vt 0.625000 0.500000
vt 0.375000 0.250000
vt 0.625000 0.250000
vt 0.875000 0.750000
vt 0.875000 0.500000
vt 0.625000 0.750000
vt 0.125000 0.750000
vt 0.375000 0.750000
vt 0.125000 0.500000
vt 0.375000 0.500000
vt 0.875000 0.750000
vt 0.625000 0.500000
vt 0.875000 0.500000
vt 0.625000 0.750000
vt 0.125000 0.750000
vt 0.625000 0.250000
vt 0.375000 0.000000
vt 0.625000 0.000000
vt 0.375000 0.750000
vt 0.125000 0.500000
vt 0.375000 0.500000
vt 0.875000 0.750000
vt 0.625000 0.500000
vt 0.875000 0.500000
vt 0.625000 0.750000
vt 0.375000 0.250000
vt 0.125000 0.750000
vt 0.625000 0.500000
vt 0.375000 0.250000
vt 0.625000 0.250000
vt 0.875000 0.750000
vt 0.875000 0.500000
vt 0.625000 0.000000
vt 0.375000 0.000000
vt 0.375000 0.750000
vt 0.125000 0.500000
vt 0.375000 0.500000
vt 0.625000 0.750000
vt 0.125000 0.750000
vt 0.625000 0.250000
vt 0.375000 0.000000
vt 0.625000 0.000000
vt 0.375000 0.750000
vt 0.125000 0.500000
vt 0.375000 0.500000
vt 0.875000 0.750000
vt 0.625000 0.500000
vt 0.875000 0.500000
vt 0.625000 1.000000
vt 0.625000 0.750000
vt 0.375000 0.250000
vt 0.125000 0.750000
vt 0.375000 1.000000
vt 0.625000 0.500000
vt 0.375000 0.250000
vt 0.625000 0.250000
vt 0.875000 0.750000
vt 0.875000 0.500000
vt 0.375000 0.750000
vt 0.125000 0.500000
vt 0.375000 0.500000
vt 0.625000 0.750000
vt 0.125000 0.750000
vt 0.375000 0.750000
vt 0.125000 0.500000
vt 0.375000 0.500000
vt 0.875000 0.750000
vt 0.625000 0.500000
vt 0.875000 0.500000
vt 0.625000 0.750000
vt 0.125000 0.750000
vt 0.625000 0.250000
vt 0.375000 0.000000
vt 0.625000 0.000000
vt 0.375000 0.750000
vt 0.125000 0.500000
vt 0.375000 0.500000
vt 0.875000 0.750000
vt 0.625000 0.500000
vt 0.875000 0.500000
vt 0.625000 1.000000
vt 0.625000 0.750000
vt 0.375000 0.250000
vt 0.125000 0.750000
vt 0.375000 1.000000
vt 0.625000 0.750000
vt 0.375000 0.500000
vt 0.625000 0.500000
vt 0.375000 0.250000
vt 0.625000 0.250000
vt 0.875000 0.750000
vt 0.875000 0.500000
vt 0.375000 0.750000
vt 0.125000 0.500000
vt 0.125000 0.750000
vt 0.375000 0.750000
vt 0.125000 0.500000
vt 0.375000 0.500000
vt 0.875000 0.750000
vt 0.625000 0.500000
vt 0.875000 0.500000
vt 0.625000 0.750000
vt 0.125000 0.750000
vt 0.375000 0.750000
vt 0.125000 0.500000
vt 0.375000 0.500000
vt 0.875000 0.750000
vt 0.625000 0.500000
vt 0.875000 0.500000
vt 0.625000 0.750000
vt 0.125000 0.750000
vt 0.375000 0.750000
vt 0.125000 0.500000
vt 0.375000 0.500000
vt 0.875000 0.750000
vt 0.625000 0.500000
vt 0.875000 0.500000
vt 0.625000 1.000000
vt 0.625000 0.750000
vt 0.375000 1.000000
vt 0.125000 0.750000
vt 0.375000 0.750000
vt 0.125000 0.500000
vt 0.375000 0.500000
vt 0.625000 0.500000
vt 0.375000 0.250000
vt 0.625000 0.250000
vt 0.875000 0.750000
vt 0.875000 0.500000
vt 0.625000 0.750000
vt 0.125000 0.750000
vt 0.375000 0.750000
vt 0.125000 0.500000
vt 0.375000 0.500000
vt 0.625000 0.750000
vt 0.625000 0.500000
vt 0.375000 0.250000
vt 0.625000 0.250000
vt 0.875000 0.750000
vt 0.875000 0.500000
vt 0.125000 0.750000
vt 0.375000 0.750000
vt 0.125000 0.500000
vt 0.375000 0.500000
vt 0.875000 0.750000
vt 0.625000 0.500000
vt 0.875000 0.500000
vt 0.625000 0.750000
vt 0.125000 0.750000
vt 0.375000 0.750000
vt 0.125000 0.500000
vt 0.375000 0.500000
vt 0.875000 0.750000
vt 0.625000 0.500000
vt 0.875000 0.500000
vt 0.625000 0.750000
vt 0.125000 0.750000
vt 0.375000 0.750000
vt 0.125000 0.500000
vt 0.375000 0.500000
vt 0.625000 0.500000
vt 0.375000 0.250000
vt 0.625000 0.250000
vt 0.875000 0.750000
vt 0.875000 0.500000
vt 0.625000 0.750000
vt 0.125000 0.750000
vt 0.375000 0.750000
vt 0.125000 0.500000
vt 0.375000 0.500000
vt 0.875000 0.750000
vt 0.625000 0.500000
vt 0.875000 0.500000
vt 0.625000 1.000000
vt 0.625000 0.750000
vt 0.125000 0.750000
vt 0.375000 1.000000
vt 0.375000 0.750000
vt 0.125000 0.500000
vt 0.375000 0.500000
vt 0.875000 0.750000
vt 0.625000 0.500000
vt 0.875000 0.500000
vt 0.625000 1.000000
vt 0.625000 0.750000
vt 0.125000 0.750000
vt 0.375000 1.000000
vt 0.375000 0.750000
vt 0.125000 0.500000
vt 0.375000 0.500000
vt 0.875000 0.750000
vt 0.625000 0.500000
vt 0.875000 0.500000
vt 0.625000 0.750000
vt 0.125000 0.750000
vt 0.875000 0.750000
vt 0.625000 0.500000
vt 0.875000 0.500000
vt 0.625000 0.000000
vt 0.375000 0.250000
vt 0.375000 0.000000
vt 0.375000 0.750000
vt 0.125000 0.500000
vt 0.375000 0.500000
vt 0.625000 1.000000
vt 0.625000 0.750000
vt 0.625000 0.250000
vt 0.125000 0.750000
vt 0.375000 1.000000
vt 0.375000 0.750000
vt 0.125000 0.500000
vt 0.375000 0.500000
vt 0.875000 0.750000
vt 0.625000 0.500000
vt 0.875000 0.500000
vt 0.625000 0.750000
vt 0.125000 0.750000
vt 0.375000 0.750000
vt 0.125000 0.500000
vt 0.375000 0.500000
vt 0.875000 0.750000
vt 0.625000 0.500000
vt 0.875000 0.500000
vt 0.625000 0.750000
vt 0.125000 0.750000
vt 0.625000 0.750000
vt 0.375000 0.500000
vt 0.625000 0.500000
vt 0.875000 0.750000
vt 0.875000 0.500000
vt 0.375000 0.750000
vt 0.125000 0.500000
vt 0.125000 0.750000
vt 0.625000 0.250000
vt 0.375000 0.000000
vt 0.625000 0.000000
vt 0.375000 0.750000
vt 0.125000 0.500000
vt 0.375000 0.500000
vt 0.875000 0.750000
vt 0.625000 0.500000
vt 0.875000 0.500000
vt 0.625000 1.000000
vt 0.625000 0.750000
vt 0.375000 0.250000
vt 0.125000 0.750000
vt 0.375000 1.000000
vt 0.375000 0.750000
vt 0.125000 0.500000
vt 0.375000 0.500000
vt 0.625000 0.500000
vt 0.375000 0.250000
vt 0.625000 0.250000
vt 0.875000 0.750000
vt 0.875000 0.500000
vt 0.625000 1.000000
vt 0.625000 0.750000
vt 0.125000 0.750000
vt 0.375000 1.000000
vt 0.375000 0.750000
vt 0.125000 0.500000
vt 0.375000 0.500000
vt 0.625000 0.750000
vt 0.625000 0.500000
vt 0.875000 0.750000
vt 0.875000 0.500000
vt 0.625000 1.000000
vt 0.125000 0.750000
vt 0.375000 1.000000
vt 0.875000 0.750000
vt 0.625000 0.500000
vt 0.875000 0.500000
vt 0.625000 0.000000
vt 0.375000 0.250000
vt 0.375000 0.000000
vt 0.375000 0.750000
vt 0.125000 0.500000
vt 0.375000 0.500000
vt 0.625000 0.750000
vt 0.625000 0.250000
vt 0.125000 0.750000
vt 0.625000 0.750000
vt 0.375000 0.500000
vt 0.625000 0.500000
vt 0.875000 0.750000
vt 0.875000 0.500000
vt 0.625000 1.000000
vt 0.375000 0.750000
vt 0.375000 1.000000
vt 0.375000 0.750000
vt 0.125000 0.500000
vt 0.375000 0.500000
vt 0.625000 0.750000
vt 0.625000 0.500000
vt 0.375000 0.250000
vt 0.625000 0.250000
vt 0.875000 0.750000
vt 0.875000 0.500000
vt 0.125000 0.750000
vt 0.375000 0.750000
vt 0.125000 0.500000
vt 0.375000 0.500000
vt 0.875000 0.750000
vt 0.625000 0.500000
vt 0.875000 0.500000
vt 0.625000 0.750000
vt 0.125000 0.750000
vt 0.375000 0.750000
vt 0.125000 0.500000
vt 0.375000 0.500000
vt 0.625000 0.750000
vt 0.625000 0.500000
vt 0.375000 0.250000
vt 0.625000 0.250000
vt 0.875000 0.750000
vt 0.875000 0.500000
vt 0.125000 0.750000
vt 0.375000 0.750000
vt 0.125000 0.500000
vt 0.375000 0.500000
vt 0.625000 0.500000
vt 0.375000 0.250000
vt 0.625000 0.250000
vt 0.875000 0.750000
vt 0.875000 0.500000
vt 0.625000 0.750000
vt 0.125000 0.750000
vt 0.375000 0.750000
vt 0.125000 0.500000
vt 0.375000 0.500000
vt 0.875000 0.750000
vt 0.625000 0.500000
vt 0.875000 0.500000
vt 0.625000 1.000000
vt 0.625000 0.750000
vt 0.125000 0.750000
vt 0.375000 1.000000
vn 0.0000 -1.0000 -0.0000
vn 0.0000 0.0000 -1.0000
vn 0.0000 1.0000 0.0000
vn -1.0000 -0.0000 0.0000
vn 0.0000 -0.0000 1.0000
vn 1.0000 0.0000 0.0000
usemtl Material.080
s 1
f 1/1/1 2/2/1 3/3/1
f 4/4/2 2/5/2 5/6/2
f 6/7/3 4/4/3 5/8/3
f 4/4/2 3/3/2 2/5/2
f 6/7/3 7/9/3 4/4/3
f 1/1/1 8/10/1 2/2/1
usemtl Material.069
f 9/11/1 10/12/1 11/13/1
f 12/14/3 13/15/3 14/16/3
f 12/14/3 15/17/3 13/15/3
f 9/11/1 16/18/1 10/12/1
usemtl Material.070
f 17/19/4 18/20/4 19/21/4
f 20/22/1 21/23/1 22/24/1
f 19/25/3 23/26/3 17/27/3
f 19/25/3 24/28/3 23/26/3
f 17/19/4 21/29/4 18/20/4
f 20/22/1 18/30/1 21/23/1
usemtl Material.071
f 25/31/2 26/32/2 27/33/2
f 28/34/3 25/31/3 27/35/3
f 28/36/4 26/32/4 29/37/4
f 30/38/1 26/39/1 31/40/1
f 25/31/2 31/40/2 26/32/2
f 28/34/3 32/41/3 25/31/3
f 28/36/4 27/33/4 26/32/4
f 30/38/1 29/42/1 26/39/1
usemtl Material.072
f 33/43/4 34/44/4 35/45/4
f 36/46/1 37/47/1 38/48/1
f 35/49/3 39/50/3 33/51/3
f 35/52/5 36/46/5 40/53/5
f 35/49/3 40/53/3 39/50/3
f 33/43/4 37/54/4 34/44/4
f 36/46/1 34/55/1 37/47/1
f 35/52/5 34/56/5 36/46/5
usemtl Material.073
f 41/57/2 42/58/2 43/59/2
f 44/60/3 41/57/3 43/61/3
f 45/62/1 42/63/1 46/64/1
f 41/57/2 46/64/2 42/58/2
f 44/60/3 47/65/3 41/57/3
f 45/62/1 48/66/1 42/63/1
usemtl Material.074
f 49/67/1 50/68/1 51/69/1
f 52/70/3 53/71/3 54/72/3
f 52/70/3 55/73/3 53/71/3
f 49/67/1 56/74/1 50/68/1
usemtl Material.075
f 57/75/4 58/76/4 59/77/4
f 60/78/1 61/79/1 62/80/1
f 59/81/3 63/82/3 57/83/3
f 59/84/5 60/78/5 64/85/5
f 57/75/4 61/86/4 58/76/4
f 59/81/3 64/85/3 63/82/3
f 60/78/1 58/87/1 61/79/1
f 59/84/5 58/88/5 60/78/5
usemtl Material.076
f 65/89/6 66/90/6 67/91/6
f 67/91/2 68/92/2 69/93/2
f 70/94/3 67/91/3 69/95/3
f 71/96/1 68/97/1 66/90/1
f 67/91/2 66/90/2 68/92/2
f 70/94/3 65/89/3 67/91/3
f 65/89/6 71/96/6 66/90/6
f 71/96/1 72/98/1 68/97/1
usemtl Material.077
f 73/99/1 74/100/1 75/101/1
f 76/102/3 77/103/3 78/104/3
f 76/102/3 79/105/3 77/103/3
f 73/99/1 80/106/1 74/100/1
usemtl Material.078
f 81/107/1 82/108/1 83/109/1
f 84/110/3 85/111/3 86/112/3
f 84/110/3 87/113/3 85/111/3
f 81/107/1 88/114/1 82/108/1
usemtl Material.079
f 89/115/1 90/116/1 91/117/1
f 92/118/3 93/119/3 94/120/3
f 92/121/5 89/115/5 95/122/5
f 92/118/3 95/122/3 93/119/3
f 92/121/5 96/123/5 89/115/5
f 89/115/1 96/124/1 90/116/1
usemtl Material.081
f 97/125/1 98/126/1 99/127/1
f 100/128/2 98/129/2 101/130/2
f 102/131/3 100/128/3 101/132/3
f 100/128/2 99/127/2 98/129/2
f 102/131/3 103/133/3 100/128/3
f 97/125/1 104/134/1 98/126/1
usemtl Material.082
f 105/135/1 106/136/1 107/137/1
f 108/138/6 107/137/6 109/139/6
f 109/139/2 106/140/2 110/141/2
f 111/142/3 109/139/3 110/143/3
f 109/139/2 107/137/2 106/140/2
f 111/142/3 108/138/3 109/139/3
f 105/135/1 112/144/1 106/136/1
f 108/138/6 105/135/6 107/137/6
usemtl Material.083
f 113/145/1 114/146/1 115/147/1
f 116/148/3 117/149/3 118/150/3
f 116/148/3 119/151/3 117/149/3
f 113/145/1 120/152/1 114/146/1
usemtl Material.084
f 121/153/1 122/154/1 123/155/1
f 124/156/3 125/157/3 126/158/3
f 124/156/3 127/159/3 125/157/3
f 121/153/1 128/160/1 122/154/1
usemtl Material.085
f 129/161/1 130/162/1 131/163/1
f 132/164/2 130/165/2 133/166/2
f 134/167/3 132/164/3 133/168/3
f 132/164/2 131/163/2 130/165/2
f 134/167/3 135/169/3 132/164/3
f 129/161/1 136/170/1 130/162/1
usemtl Material.086
f 137/171/1 138/172/1 139/173/1
f 140/174/3 141/175/3 142/176/3
f 140/177/5 137/171/5 143/178/5
f 140/174/3 143/178/3 141/175/3
f 137/171/1 144/179/1 138/172/1
f 140/177/5 144/180/5 137/171/5
usemtl Material.087
f 145/181/1 146/182/1 147/183/1
f 148/184/3 149/185/3 150/186/3
f 148/187/5 145/181/5 151/188/5
f 148/184/3 151/188/3 149/185/3
f 145/181/1 152/189/1 146/182/1
f 148/187/5 152/190/5 145/181/5
usemtl Material.088
f 153/191/1 154/192/1 155/193/1
f 156/194/3 157/195/3 158/196/3
f 156/194/3 159/197/3 157/195/3
f 153/191/1 160/198/1 154/192/1
usemtl Material.089
f 161/199/3 162/200/3 163/201/3
f 161/202/4 164/203/4 165/204/4
f 166/205/1 164/206/1 167/207/1
f 161/208/5 166/205/5 168/209/5
f 161/199/3 168/209/3 162/200/3
f 161/202/4 163/210/4 164/203/4
f 166/205/1 165/211/1 164/206/1
f 161/208/5 165/212/5 166/205/5
usemtl Material.090
f 169/213/1 170/214/1 171/215/1
f 172/216/3 173/217/3 174/218/3
f 172/216/3 175/219/3 173/217/3
f 169/213/1 176/220/1 170/214/1
usemtl Material.091
f 177/221/1 178/222/1 179/223/1
f 180/224/3 181/225/3 182/226/3
f 180/224/3 183/227/3 181/225/3
f 177/221/1 184/228/1 178/222/1
usemtl Material.092
f 185/229/6 186/230/6 187/231/6
f 188/232/3 187/231/3 189/233/3
f 190/234/1 191/235/1 186/230/1
f 188/232/3 185/229/3 187/231/3
f 185/229/6 190/234/6 186/230/6
f 190/234/1 192/236/1 191/235/1
usemtl Material.093
f 193/237/4 194/238/4 195/239/4
f 196/240/1 197/241/1 198/242/1
f 195/243/3 199/244/3 193/245/3
f 195/246/5 196/240/5 200/247/5
f 193/237/4 197/248/4 194/238/4
f 195/243/3 200/247/3 199/244/3
f 196/240/1 194/249/1 197/241/1
f 195/246/5 194/250/5 196/240/5
usemtl Material.094
f 201/251/1 202/252/1 203/253/1
f 204/254/2 202/255/2 205/256/2
f 206/257/3 204/254/3 205/258/3
f 206/259/5 201/251/5 207/260/5
f 204/254/2 203/253/2 202/255/2
f 206/257/3 207/260/3 204/254/3
f 201/251/1 208/261/1 202/252/1
f 206/259/5 208/262/5 201/251/5
usemtl Material.095
f 209/263/1 210/264/1 211/265/1
f 212/266/6 211/265/6 213/267/6
f 214/268/3 213/267/3 215/269/3
f 214/270/5 209/263/5 212/266/5
f 214/268/3 212/266/3 213/267/3
f 209/263/1 216/271/1 210/264/1
f 212/266/6 209/263/6 211/265/6
f 214/270/5 216/272/5 209/263/5
usemtl Material.096
f 217/273/3 218/274/3 219/275/3
f 217/276/4 220/277/4 221/278/4
f 222/279/1 220/280/1 223/281/1
f 217/273/3 224/282/3 218/274/3
f 217/276/4 219/283/4 220/277/4
f 222/279/1 221/284/1 220/280/1
usemtl Material.097
f 225/285/6 226/286/6 227/287/6
f 228/288/3 227/287/3 229/289/3
f 228/290/5 230/291/5 225/285/5
f 228/288/3 225/285/3 227/287/3
f 225/285/6 230/291/6 226/286/6
f 228/290/5 231/292/5 230/291/5
usemtl Material.098
f 232/293/1 233/294/1 234/295/1
f 235/296/6 234/295/6 236/297/6
f 236/297/2 233/298/2 237/299/2
f 238/300/3 236/297/3 237/301/3
f 236/297/2 234/295/2 233/298/2
f 238/300/3 235/296/3 236/297/3
f 232/293/1 239/302/1 233/294/1
f 235/296/6 232/293/6 234/295/6
usemtl Material.099
f 240/303/1 241/304/1 242/305/1
f 243/306/3 244/307/3 245/308/3
f 243/306/3 246/309/3 244/307/3
f 240/303/1 247/310/1 241/304/1
usemtl Material.100
f 248/311/1 249/312/1 250/313/1
f 251/314/6 250/313/6 252/315/6
f 252/315/2 249/316/2 253/317/2
f 254/318/3 252/315/3 253/319/3
f 252/315/2 250/313/2 249/316/2
f 254/318/3 251/314/3 252/315/3
f 248/311/1 255/320/1 249/312/1
f 251/314/6 248/311/6 250/313/6
usemtl Material.101
f 256/321/1 257/322/1 258/323/1
f 259/324/2 257/325/2 260/326/2
f 261/327/3 259/324/3 260/328/3
f 259/324/2 258/323/2 257/325/2
f 261/327/3 262/329/3 259/324/3
f 256/321/1 263/330/1 257/322/1
usemtl Material.102
f 264/331/1 265/332/1 266/333/1
f 267/334/3 268/335/3 269/336/3
f 267/337/5 264/331/5 270/338/5
f 267/334/3 270/338/3 268/335/3
f 264/331/1 271/339/1 265/332/1
f 267/337/5 271/340/5 264/331/5
