# Blender v2.92.0 OBJ File: 'patas e cabeça.blend'
# www.blender.org
mtllib patas e cabeça.mtl
o Icosphere.001_Icosphere.002
v 0.010198 -0.306744 -1.013696
v 0.352501 0.170057 -1.134149
v -0.120547 0.411240 -1.064677
v -0.412910 -0.232625 -1.213068
v -0.120547 -0.817059 -1.521318
v 0.352501 -0.589066 -1.416366
v 0.140944 0.581162 -1.521744
v -0.332104 0.288925 -1.453888
v -0.332104 -0.470198 -1.736105
v 0.140944 -0.647136 -1.978385
v 0.433307 -0.131539 -1.484973
v 0.010198 -0.042157 -1.725398
v -0.066651 0.082170 -0.954621
v 0.211397 -0.054973 -1.007879
v 0.134548 0.366956 -1.037596
v 0.412598 -0.247498 -1.173061
v 0.211397 -0.501171 -1.173761
v -0.238498 -0.278667 -1.089219
v -0.315350 0.137655 -1.103863
v -0.066651 -0.639800 -1.223025
v -0.315350 -0.584318 -1.372269
v 0.134548 -0.801220 -1.471886
v 0.460096 0.048336 -1.285763
v 0.460096 -0.397864 -1.451645
v 0.010198 0.539178 -1.274673
v 0.288250 0.466743 -1.305999
v -0.439700 0.049975 -1.290171
v -0.267854 0.458503 -1.283835
v -0.267854 -0.709680 -1.718127
v -0.439700 -0.396225 -1.456054
v 0.288250 -0.701440 -1.740291
v 0.010198 -0.780566 -1.765624
v 0.335746 0.306104 -1.556967
v -0.114152 0.551784 -1.534757
v -0.392201 -0.125805 -1.500399
v -0.114152 -0.616392 -1.969047
v 0.335746 -0.415868 -1.825373
v 0.087048 0.354721 -1.687744
v 0.258895 -0.054904 -1.691110
v -0.191001 0.188294 -1.662233
v -0.191001 -0.257904 -1.828115
v 0.087048 -0.367249 -1.956149
vt 0.818181 0.000000
vt 0.772726 0.078731
vt 0.863635 0.078731
vt 0.727272 0.157461
vt 0.681818 0.078731
vt 0.636363 0.157461
vt 0.090909 0.000000
vt 0.045454 0.078731
vt 0.136363 0.078731
vt 0.272727 0.000000
vt 0.227273 0.078731
vt 0.318182 0.078731
vt 0.454545 0.000000
vt 0.409090 0.078731
vt 0.500000 0.078731
vt 0.681818 0.236191
vt 0.909090 0.157461
vt 0.818181 0.157461
vt 0.863635 0.236191
vt 0.181818 0.157461
vt 0.090909 0.157461
vt 0.136363 0.236191
vt 0.363636 0.157461
vt 0.272727 0.157461
vt 0.318182 0.236191
vt 0.545454 0.157461
vt 0.454545 0.157461
vt 0.500000 0.236191
vt 0.772726 0.236191
vt 0.954545 0.236191
vt 0.227273 0.236191
vt 0.409090 0.236191
vt 0.590909 0.236191
vt 0.818181 0.314921
vt 0.727272 0.314921
vt 0.772726 0.393651
vt 1.000000 0.314921
vt 0.909091 0.314921
vt 0.954545 0.393651
vt 0.272727 0.314921
vt 0.181818 0.314921
vt 0.227273 0.393651
vt 0.454545 0.314921
vt 0.363636 0.314921
vt 0.409090 0.393651
vt 0.636363 0.314921
vt 0.545454 0.314921
vt 0.590909 0.393651
vt 0.500000 0.393651
vt 0.545454 0.472382
vt 0.318182 0.393651
vt 0.363636 0.472382
vt 0.136363 0.393651
vt 0.181818 0.472382
vt 0.090909 0.314921
vt 0.863635 0.393651
vt 0.909090 0.472382
vt 0.681818 0.393651
vt 0.727272 0.472382
vt 0.045454 0.236191
vt 0.000000 0.157461
vt 0.590909 0.078731
vt 0.636363 0.000000
vn 0.1272 -0.1244 0.9841
vn 0.6469 0.0221 0.7622
vn -0.3054 -0.2017 0.9306
vn -0.3054 -0.4552 0.8364
vn 0.1272 -0.5487 0.8263
vn 0.8393 0.0706 0.5390
vn 0.0845 0.8267 0.5563
vn -0.8439 0.0653 0.5325
vn -0.7074 -0.6901 0.1530
vn 0.6771 -0.7264 0.1177
vn 0.8713 0.3733 0.3187
vn -0.2699 0.8878 0.3729
vn -0.9879 -0.0540 0.1453
vn -0.2825 -0.9151 -0.2879
vn 0.8713 -0.4908 -0.0026
vn 0.4839 0.4396 -0.7567
vn -0.6784 0.3667 -0.6366
vn -0.7718 0.2619 -0.5794
vn -0.0276 0.0739 -0.9969
vn 0.7741 0.3588 -0.5216
vn 0.1396 0.5949 -0.7916
vn 0.4869 0.3937 -0.7797
vn 0.4839 0.1615 -0.8601
vn -0.1644 0.5448 -0.8223
vn -0.3030 0.2917 -0.9072
vn -0.6784 0.1382 -0.7215
vn 0.1043 0.3466 -0.9322
vn -0.7922 0.2127 -0.5721
vn -0.7718 0.1802 -0.6098
vn -0.1644 0.1247 -0.9785
vn -0.3030 0.3718 -0.8775
vn -0.0276 0.5953 -0.8031
vn 0.1396 0.0667 -0.9880
vn 0.4869 0.2112 -0.8475
vn 0.7741 0.0690 -0.6293
vn 0.9466 0.0555 -0.3176
vn 0.9241 -0.2418 -0.2958
vn 0.7814 -0.2940 -0.5505
vn -0.1184 -0.8068 -0.5788
vn -0.2929 -0.8236 -0.4856
vn -0.7805 -0.2523 -0.5719
vn -0.9198 0.0993 -0.3796
vn -0.9439 0.1151 -0.3095
vn -0.9198 0.1728 -0.3523
vn -0.7805 0.5647 -0.2682
vn -0.2796 0.9432 0.1794
vn -0.1191 0.9873 0.1048
vn 0.7814 0.5822 -0.2248
vn 0.9241 0.3764 -0.0660
vn 0.9466 0.1655 -0.2767
vn 0.2851 -0.8811 -0.3774
vn 0.2846 -0.9403 -0.1866
vn 0.0818 -0.9912 -0.1043
vn -0.9209 -0.2683 -0.2829
vn -0.8468 -0.5266 0.0746
vn -0.8439 -0.3973 0.3605
vn -0.9209 0.3880 -0.0390
vn -0.8468 0.3500 0.4005
vn -0.7074 0.4225 0.5666
vn 0.2720 0.9146 0.2993
vn 0.2718 0.8408 0.4682
vn 0.6771 0.4731 0.5636
vn 0.9775 0.0736 -0.1979
vn 0.9751 -0.0773 0.2080
vn 0.8393 -0.4055 0.3620
vn 0.5124 -0.6677 0.5400
vn 0.2398 -0.7145 0.6573
vn -0.0470 -0.8550 0.5166
vn -0.4681 -0.7199 0.5124
vn -0.5243 -0.5038 0.6864
vn -0.5912 -0.4630 0.6604
vn -0.5912 -0.0809 0.8025
vn -0.5243 -0.0669 0.8489
vn -0.4681 0.2104 0.8583
vn 0.6469 -0.5146 0.5627
vn 0.3997 -0.3194 0.8592
vn 0.3785 -0.3225 0.8676
vn -0.0470 0.3099 0.9496
vn 0.2398 0.1116 0.9644
vn 0.5124 0.1528 0.8450
usemtl None
s off
f 1/1/1 14/2/1 13/3/1
f 2/4/2 14/5/2 16/6/2
f 1/7/3 13/8/3 18/9/3
f 1/10/4 18/11/4 20/12/4
f 1/13/5 20/14/5 17/15/5
f 2/4/6 16/6/6 23/16/6
f 3/17/7 15/18/7 25/19/7
f 4/20/8 19/21/8 27/22/8
f 5/23/9 21/24/9 29/25/9
f 6/26/10 22/27/10 31/28/10
f 2/4/11 23/16/11 26/29/11
f 3/17/12 25/19/12 28/30/12
f 4/20/13 27/22/13 30/31/13
f 5/23/14 29/25/14 32/32/14
f 6/26/15 31/28/15 24/33/15
f 7/34/16 33/35/16 38/36/16
f 8/37/17 34/38/17 40/39/17
f 9/40/18 35/41/18 41/42/18
f 10/43/19 36/44/19 42/45/19
f 11/46/20 37/47/20 39/48/20
f 39/48/21 42/49/21 12/50/21
f 39/48/22 37/47/22 42/49/22
f 37/47/23 10/43/23 42/49/23
f 42/45/24 41/51/24 12/52/24
f 42/45/25 36/44/25 41/51/25
f 36/44/26 9/40/26 41/51/26
f 41/42/27 40/53/27 12/54/27
f 41/42/28 35/41/28 40/53/28
f 35/41/29 8/55/29 40/53/29
f 40/39/30 38/56/30 12/57/30
f 40/39/31 34/38/31 38/56/31
f 34/38/32 7/34/32 38/56/32
f 38/36/33 39/58/33 12/59/33
f 38/36/34 33/35/34 39/58/34
f 33/35/35 11/46/35 39/58/35
f 24/33/36 37/47/36 11/46/36
f 24/33/37 31/28/37 37/47/37
f 31/28/38 10/43/38 37/47/38
f 32/32/39 36/44/39 10/43/39
f 32/32/40 29/25/40 36/44/40
f 29/25/41 9/40/41 36/44/41
f 30/31/42 35/41/42 9/40/42
f 30/31/43 27/22/43 35/41/43
f 27/22/44 8/55/44 35/41/44
f 28/30/45 34/38/45 8/37/45
f 28/30/46 25/19/46 34/38/46
f 25/19/47 7/34/47 34/38/47
f 26/29/48 33/35/48 7/34/48
f 26/29/49 23/16/49 33/35/49
f 23/16/50 11/46/50 33/35/50
f 31/28/51 32/32/51 10/43/51
f 31/28/52 22/27/52 32/32/52
f 22/27/53 5/23/53 32/32/53
f 29/25/54 30/31/54 9/40/54
f 29/25/55 21/24/55 30/31/55
f 21/24/56 4/20/56 30/31/56
f 27/22/57 28/60/57 8/55/57
f 27/22/58 19/21/58 28/60/58
f 19/21/59 3/61/59 28/60/59
f 25/19/60 26/29/60 7/34/60
f 25/19/61 15/18/61 26/29/61
f 15/18/62 2/4/62 26/29/62
f 23/16/63 24/33/63 11/46/63
f 23/16/64 16/6/64 24/33/64
f 16/6/65 6/26/65 24/33/65
f 17/15/66 22/27/66 6/26/66
f 17/15/67 20/14/67 22/27/67
f 20/14/68 5/23/68 22/27/68
f 20/12/69 21/24/69 5/23/69
f 20/12/70 18/11/70 21/24/70
f 18/11/71 4/20/71 21/24/71
f 18/9/72 19/21/72 4/20/72
f 18/9/73 13/8/73 19/21/73
f 13/8/74 3/61/74 19/21/74
f 16/6/75 17/62/75 6/26/75
f 16/6/76 14/5/76 17/62/76
f 14/5/77 1/63/77 17/62/77
f 13/3/78 15/18/78 3/17/78
f 13/3/79 14/2/79 15/18/79
f 14/2/80 2/4/80 15/18/80
o Cube
v -0.497404 -0.750934 -0.222961
v -0.309930 -0.766150 -0.222961
v -0.497404 -0.750934 -0.562519
v -0.309930 -0.766150 -0.562519
v -0.548315 -1.378219 -0.222961
v -0.360842 -1.393434 -0.222961
v -0.548315 -1.378219 -0.562519
v -0.360842 -1.393434 -0.562519
vt 0.625000 0.000000
vt 0.375000 0.250000
vt 0.375000 0.000000
vt 0.625000 0.250000
vt 0.375000 0.500000
vt 0.625000 0.500000
vt 0.375000 0.750000
vt 0.625000 0.750000
vt 0.375000 1.000000
vt 0.125000 0.750000
vt 0.125000 0.500000
vt 0.875000 0.500000
vt 0.625000 1.000000
vt 0.875000 0.750000
vn 0.0809 0.9967 0.0000
vn 0.0000 0.0000 -1.0000
vn -0.0809 -0.9967 0.0000
vn 0.0000 0.0000 1.0000
vn -0.9967 0.0809 0.0000
vn 0.9967 -0.0809 0.0000
usemtl None
s off
f 44/64/81 45/65/81 43/66/81
f 46/67/82 49/68/82 45/65/82
f 50/69/83 47/70/83 49/68/83
f 48/71/84 43/72/84 47/70/84
f 49/68/85 43/73/85 45/74/85
f 46/75/86 48/71/86 50/69/86
f 44/64/81 46/67/81 45/65/81
f 46/67/82 50/69/82 49/68/82
f 50/69/83 48/71/83 47/70/83
f 48/71/84 44/76/84 43/72/84
f 49/68/85 47/70/85 43/73/85
f 46/75/86 44/77/86 48/71/86
o Cube.001
v 0.239551 -0.779412 -0.231683
v 0.422999 -0.737883 -0.231683
v 0.239551 -0.779412 -0.571241
v 0.422999 -0.737883 -0.571241
v 0.378506 -1.393227 -0.231683
v 0.561955 -1.351698 -0.231683
v 0.378506 -1.393227 -0.571241
v 0.561955 -1.351698 -0.571241
vt 0.625000 0.000000
vt 0.375000 0.250000
vt 0.375000 0.000000
vt 0.625000 0.250000
vt 0.375000 0.500000
vt 0.625000 0.500000
vt 0.375000 0.750000
vt 0.625000 0.750000
vt 0.375000 1.000000
vt 0.125000 0.750000
vt 0.125000 0.500000
vt 0.875000 0.500000
vt 0.625000 1.000000
vt 0.875000 0.750000
vn -0.2208 0.9753 0.0000
vn -0.0000 0.0000 -1.0000
vn 0.2208 -0.9753 0.0000
vn 0.0000 0.0000 1.0000
vn -0.9753 -0.2208 0.0000
vn 0.9753 0.2208 0.0000
usemtl None
s off
f 52/78/87 53/79/87 51/80/87
f 54/81/88 57/82/88 53/79/88
f 58/83/89 55/84/89 57/82/89
f 56/85/90 51/86/90 55/84/90
f 57/82/91 51/87/91 53/88/91
f 54/89/92 56/85/92 58/83/92
f 52/78/87 54/81/87 53/79/87
f 54/81/88 58/83/88 57/82/88
f 58/83/89 56/85/89 55/84/89
f 56/85/90 52/90/90 51/86/90
f 57/82/91 55/84/91 51/87/91
f 54/89/92 52/91/92 56/85/92
o Cube.002
v -0.508087 -0.742014 0.605268
v -0.320511 -0.755912 0.605268
v -0.508087 -0.742014 0.265710
v -0.320511 -0.755912 0.265710
v -0.554592 -1.369640 0.605268
v -0.367016 -1.383539 0.605268
v -0.554592 -1.369640 0.265710
v -0.367016 -1.383539 0.265710
vt 0.625000 0.000000
vt 0.375000 0.250000
vt 0.375000 0.000000
vt 0.625000 0.250000
vt 0.375000 0.500000
vt 0.625000 0.500000
vt 0.375000 0.750000
vt 0.625000 0.750000
vt 0.375000 1.000000
vt 0.125000 0.750000
vt 0.125000 0.500000
vt 0.875000 0.500000
vt 0.625000 1.000000
vt 0.875000 0.750000
vn 0.0739 0.9973 0.0000
vn 0.0000 0.0000 -1.0000
vn -0.0739 -0.9973 0.0000
vn 0.0000 0.0000 1.0000
vn -0.9973 0.0739 0.0000
vn 0.9973 -0.0739 0.0000
usemtl None
s off
f 60/92/93 61/93/93 59/94/93
f 62/95/94 65/96/94 61/93/94
f 66/97/95 63/98/95 65/96/95
f 64/99/96 59/100/96 63/98/96
f 65/96/97 59/101/97 61/102/97
f 62/103/98 64/99/98 66/97/98
f 60/92/93 62/95/93 61/93/93
f 62/95/94 66/97/94 65/96/94
f 66/97/95 64/99/95 63/98/95
f 64/99/96 60/104/96 59/100/96
f 65/96/97 63/98/97 59/101/97
f 62/103/98 60/105/98 64/99/98
o Cube.003
v 0.232692 -0.769278 0.596546
v 0.416453 -0.729154 0.596546
v 0.232692 -0.769278 0.256988
v 0.416453 -0.729154 0.256988
v 0.366946 -1.384139 0.596546
v 0.550707 -1.344015 0.596546
v 0.366946 -1.384139 0.256988
v 0.550707 -1.344015 0.256988
vt 0.625000 0.000000
vt 0.375000 0.250000
vt 0.375000 0.000000
vt 0.625000 0.250000
vt 0.375000 0.500000
vt 0.625000 0.500000
vt 0.375000 0.750000
vt 0.625000 0.750000
vt 0.375000 1.000000
vt 0.125000 0.750000
vt 0.125000 0.500000
vt 0.875000 0.500000
vt 0.625000 1.000000
vt 0.875000 0.750000
vn -0.2133 0.9770 0.0000
vn 0.0000 0.0000 -1.0000
vn 0.2133 -0.9770 0.0000
vn 0.0000 0.0000 1.0000
vn -0.9770 -0.2133 0.0000
vn 0.9770 0.2133 0.0000
usemtl None
s off
f 68/106/99 69/107/99 67/108/99
f 70/109/100 73/110/100 69/107/100
f 74/111/101 71/112/101 73/110/101
f 72/113/102 67/114/102 71/112/102
f 73/110/103 67/115/103 69/116/103
f 70/117/104 72/113/104 74/111/104
f 68/106/99 70/109/99 69/107/99
f 70/109/100 74/111/100 73/110/100
f 74/111/101 72/113/101 71/112/101
f 72/113/102 68/118/102 67/114/102
f 73/110/103 71/112/103 67/115/103
f 70/117/104 68/119/104 72/113/104
